<svg width="24" height="24" viewBox="0 0 24 24" fill="none" xmlns="http://www.w3.org/2000/svg">
<path fill-rule="evenodd" clip-rule="evenodd" d="M5.42909 6.84333L2.29288 3.70712L3.70709 2.29291L21.7071 20.2929L20.2929 21.7071L17.0212 18.4354C15.512 19.4649 13.7761 20.0127 11.996 19.9998C7.86322 19.9981 4.59313 17.2841 2.1107 12.4573L1.87549 11.9999L2.1107 11.5426C3.09338 9.63185 4.19504 8.05434 5.42909 6.84333ZM6.84341 8.25765C5.88967 9.19027 4.98197 10.4291 4.13067 12C6.39483 16.1798 9.04047 17.9998 12 17.9998H12.0077V17.9998C13.2417 18.0093 14.4662 17.6655 15.575 16.9892L13.2934 14.7077C12.8933 14.8989 12.4519 15.001 12 15.0011C11.2044 15.0012 10.4412 14.6853 9.87851 14.1227C9.31579 13.5602 8.99958 12.7972 8.99944 12.0015C8.99936 11.5493 9.10141 11.1075 9.29283 10.7071L6.84341 8.25765ZM11.2598 12.674C11.2704 12.6857 11.2813 12.6971 11.2925 12.7083C11.3036 12.7194 11.3149 12.7302 11.3265 12.7407L11.2598 12.674ZM11.997 6.00005C11.4648 5.99844 10.9331 6.05969 10.4098 6.18327L9.95014 4.23682C10.6244 4.07757 11.3118 3.99809 12.0015 4.00005C16.1354 4.00071 19.4064 6.71476 21.8893 11.5426L22.1245 11.9999L21.8893 12.4573C21.1981 13.8013 20.449 14.9779 19.639 15.9777L18.085 14.7187C18.7047 13.9538 19.3006 13.0491 19.8693 11.9999C17.6051 7.82004 14.9595 6.00005 12 6.00005L11.997 6.00005Z" fill="#121212"/>
</svg>
