<svg width="24" height="24" viewBox="0 0 24 24" fill="none" xmlns="http://www.w3.org/2000/svg">
<path fill-rule="evenodd" clip-rule="evenodd" d="M4.13066 12C6.39484 16.18 9.04049 18 12 18C14.9595 18 17.6052 16.18 19.8694 12C17.6052 7.82004 14.9595 6 12 6C9.04049 6 6.39484 7.82004 4.13066 12ZM2.11073 11.5427C4.59394 6.71418 7.86534 4 12 4C16.1347 4 19.4061 6.71418 21.8893 11.5427L22.1245 12L21.8893 12.4573C19.4061 17.2858 16.1347 20 12 20C7.86534 20 4.59394 17.2858 2.11073 12.4573L1.87552 12L2.11073 11.5427ZM9.87869 9.87868C10.4413 9.31607 11.2044 9 12 9C12.7957 9 13.5587 9.31607 14.1213 9.87868C14.6839 10.4413 15 11.2043 15 12C15 12.7957 14.6839 13.5587 14.1213 14.1213C13.5587 14.6839 12.7957 15 12 15C11.2044 15 10.4413 14.6839 9.87869 14.1213C9.31609 13.5587 9.00001 12.7957 9.00001 12C9.00001 11.2043 9.31609 10.4413 9.87869 9.87868ZM12 11C11.7348 11 11.4804 11.1054 11.2929 11.2929C11.1054 11.4804 11 11.7348 11 12C11 12.2652 11.1054 12.5196 11.2929 12.7071C11.4804 12.8946 11.7348 13 12 13C12.2652 13 12.5196 12.8946 12.7071 12.7071C12.8947 12.5196 13 12.2652 13 12C13 11.7348 12.8947 11.4804 12.7071 11.2929C12.5196 11.1054 12.2652 11 12 11Z" fill="#121212"/>
</svg>
